<svg width="248" height="132" viewBox="0 0 248 132" fill="none" xmlns="http://www.w3.org/2000/svg">
<rect x="2" y="1.99756" width="154" height="64.001" stroke="white" stroke-width="3"/>
<path fill-rule="evenodd" clip-rule="evenodd" d="M44.212 32.6796C44.3455 32.5931 44.4399 32.4578 44.475 32.3026L44.913 31.2976C45 31.1726 45 31.0046 45 30.8376V25.3126C45 25.1456 45 24.9786 44.913 24.8526L44.475 23.8486C44.431 23.7226 44.344 23.5556 44.212 23.4716L41.412 20.7516L41.019 20.4996L39.969 20.0816C39.812 20.0369 39.6508 20.0087 39.488 19.9976H26.668C26.318 19.9976 26.013 20.1236 25.794 20.3746L24.35 21.7136C24.131 21.9236 24 22.2156 24 22.5506V45.4876C24 45.7806 24.131 46.0736 24.35 46.3246L25.794 47.6646C26.013 47.8726 26.319 47.9986 26.669 47.9986H39.488C39.618 47.9986 39.794 47.9986 39.968 47.9146L41.018 47.4966C41.1669 47.4437 41.3019 47.3579 41.413 47.2456L44.213 44.5666C44.3288 44.4633 44.4186 44.3341 44.475 44.1896L44.913 43.1856C45 43.0176 45 42.8926 45 42.7256V37.1576C45 37.0316 45 36.8646 44.913 36.6976L44.475 35.6926C44.4183 35.5479 44.3282 35.4187 44.212 35.3156L43.382 34.5206C43.3096 34.4541 43.2517 34.3732 43.2122 34.2832C43.1726 34.1932 43.1522 34.0959 43.1522 33.9976C43.1522 33.8992 43.1726 33.802 43.2122 33.7119C43.2517 33.6219 43.3096 33.5411 43.382 33.4746L44.212 32.6796ZM29.25 43.7276C28.812 43.7276 28.463 43.3926 28.463 42.9746V36.9046C28.463 36.4866 28.813 36.1516 29.25 36.1516H38.438C38.613 36.1516 38.831 36.2356 38.962 36.3616L40.319 37.6586C40.3884 37.7224 40.4437 37.8001 40.4814 37.8865C40.5191 37.9729 40.5384 38.0663 40.538 38.1606V41.7186C40.538 41.9286 40.45 42.0956 40.318 42.2206L38.962 43.5186C38.8172 43.6475 38.6318 43.7215 38.438 43.7276H29.25ZM38.963 31.6316C38.8988 31.7089 38.8187 31.7713 38.728 31.8147C38.6374 31.858 38.5384 31.8812 38.438 31.8826H29.25C28.812 31.8826 28.463 31.5486 28.463 31.1296V25.0196C28.463 24.6426 28.813 24.3076 29.25 24.3076H38.438C38.613 24.3076 38.831 24.3496 38.962 24.5176L40.319 25.7726C40.45 25.9396 40.538 26.1076 40.538 26.3166V29.8326C40.5387 30.0357 40.4597 30.231 40.318 30.3766L38.962 31.6316H38.963Z" fill="white"/>
<path fill-rule="evenodd" clip-rule="evenodd" d="M68.75 19.9976H67C66.292 19.9976 65.75 20.5826 65.75 21.2936V41.8536C65.75 41.8956 65.708 42.4816 65.458 42.9836C65.25 43.3586 64.917 43.6936 63.958 43.6936H57.042C56.083 43.6936 55.75 43.3586 55.542 42.9836C55.292 42.4816 55.25 41.8956 55.25 41.8956V21.2936C55.25 20.5836 54.667 19.9976 54 19.9976H52.25C51.542 19.9976 51 20.5826 51 21.2936V41.8956C51 42.1466 51 43.4426 51.708 44.8216C52.708 46.8696 54.625 47.9976 57.042 47.9976H63.958C66.375 47.9976 68.292 46.8696 69.292 44.8216C69.958 43.4416 70 42.1466 70 41.8956V21.2936C70 20.5836 69.458 19.9976 68.75 19.9976Z" fill="white"/>
<path fill-rule="evenodd" clip-rule="evenodd" d="M84.866 24.2676H86.804C87.464 24.2676 88 23.7226 88 23.0526V21.2116C88 20.5416 87.464 19.9976 86.804 19.9976H77.196C76.536 19.9976 76 20.5416 76 21.2116V23.0526C76 23.7226 76.536 24.2666 77.196 24.2666H79.134C79.546 24.2666 79.876 24.6016 79.876 25.0616V42.9336C79.876 43.3516 79.546 43.7286 79.134 43.7286H77.196C76.536 43.7286 76 44.2726 76 44.9426V46.7836C76 47.4536 76.536 47.9976 77.196 47.9976H86.804C87.464 47.9976 88 47.4536 88 46.7836V44.9426C88 44.2726 87.464 43.7286 86.804 43.7286H84.866C84.454 43.7286 84.124 43.3516 84.124 42.9336V25.0616C84.124 24.6016 84.454 24.2676 84.866 24.2676Z" fill="white"/>
<path fill-rule="evenodd" clip-rule="evenodd" d="M111.742 43.7276H99.249C98.815 43.7276 98.425 43.3936 98.425 42.9756V21.2116C98.425 20.5416 97.86 19.9976 97.167 19.9976H95.258C94.564 19.9976 94 20.5416 94 21.2116V45.4866C94 45.7796 94.13 46.1146 94.347 46.3236L95.735 47.6636C95.995 47.8716 96.299 47.9976 96.646 47.9976H111.742C112.436 47.9976 113 47.4956 113 46.8256V44.9426C113 44.2726 112.436 43.7286 111.742 43.7286V43.7276Z" fill="white"/>
<path fill-rule="evenodd" clip-rule="evenodd" d="M132.877 19.9976H115.123C114.499 19.9976 114 20.4996 114 21.1276V23.1376C114 23.7656 114.5 24.3096 115.123 24.3096H121.193C121.567 24.3096 121.858 24.6026 121.858 24.9796V46.8676C121.858 47.4956 122.358 47.9976 122.981 47.9976H125.019C125.643 47.9976 126.142 47.4956 126.142 46.8676V24.9776C126.142 24.6016 126.432 24.3076 126.807 24.3076H132.877C133.501 24.3076 134 23.7656 134 23.1376V21.1276C134 20.4996 133.501 19.9976 132.877 19.9976Z" fill="white"/>
<rect x="2" y="65.9985" width="244" height="64.0036" stroke="white" stroke-width="3"/>
<path fill-rule="evenodd" clip-rule="evenodd" d="M67.877 84.001H50.123C49.499 84.001 49 84.503 49 85.131V87.141C49 87.769 49.5 88.313 50.123 88.313H56.193C56.567 88.313 56.858 88.606 56.858 88.983V110.871C56.858 111.499 57.358 112.001 57.981 112.001H60.019C60.643 112.001 61.142 111.499 61.142 110.871V88.981C61.142 88.605 61.432 88.311 61.807 88.311H67.877C68.501 88.311 69 87.769 69 87.141V85.131C69 84.503 68.501 84.001 67.877 84.001Z" fill="white"/>
<path fill-rule="evenodd" clip-rule="evenodd" d="M91.917 84.001C91.25 84.001 90.75 84.543 90.75 85.209V95.126C90.75 95.543 90.375 95.876 89.958 95.876H80C79.9014 95.8764 79.8037 95.8572 79.7125 95.8197C79.6213 95.7821 79.5385 95.7269 79.4688 95.6572C79.3991 95.5875 79.3438 95.5046 79.3063 95.4135C79.2687 95.3223 79.2496 95.2246 79.25 95.126V85.209C79.2495 84.8888 79.122 84.5818 78.8956 84.3554C78.6692 84.1289 78.3622 84.0015 78.042 84.001H76.167C75.542 84.001 75 84.543 75 85.209V110.834C75 111.459 75.542 112.001 76.167 112.001H78.042C78.708 112.001 79.25 111.459 79.25 110.834V100.876C79.25 100.459 79.583 100.126 80 100.126H89.958C90.375 100.126 90.75 100.459 90.75 100.876V110.834C90.75 111.459 91.25 112.001 91.917 112.001H93.792C94.458 112.001 95 111.459 95 110.834V85.209C94.9995 84.8888 94.872 84.5818 94.6456 84.3554C94.4192 84.1289 94.1122 84.0015 93.792 84.001H91.917Z" fill="white"/>
<path fill-rule="evenodd" clip-rule="evenodd" d="M106.353 88.271H118.683C119.43 88.271 120 87.683 120 87.013V85.257C120 84.545 119.43 84.001 118.684 84.001H103.72C103.368 84.001 103.017 84.127 102.754 84.378L101.395 85.675C101.132 85.926 101 86.219 101 86.555V109.406C101 109.741 101.132 110.076 101.395 110.326L102.755 111.624C103.018 111.875 103.37 112.001 103.721 112.001H118.684C119.43 112.001 120 111.415 120 110.745V108.987C120 108.276 119.43 107.69 118.684 107.69H106.354C105.871 107.69 105.476 107.355 105.476 106.895V100.951C105.476 100.491 105.871 100.114 106.353 100.114H116.621C117.323 100.114 117.938 99.57 117.938 98.858V97.101C117.938 96.431 117.323 95.846 116.621 95.846H106.353C105.871 95.846 105.476 95.469 105.476 95.008V89.108C105.476 88.647 105.871 88.271 106.353 88.271Z" fill="white"/>
<path fill-rule="evenodd" clip-rule="evenodd" d="M145.757 110.162L139.2 101.093H140.477C140.647 101.093 140.775 101.093 140.946 101.01L141.968 100.592C142.095 100.55 142.223 100.467 142.351 100.342L145.076 97.6671C145.189 97.5631 145.277 97.434 145.331 97.2901L145.757 96.2881C145.839 96.1484 145.883 95.9899 145.885 95.8281V90.2281C145.882 90.1118 145.853 89.9977 145.8 89.8941L145.502 89.0161C145.459 88.8911 145.417 88.7661 145.332 88.6821L142.564 85.0461C142.453 84.9001 142.306 84.7848 142.138 84.7111L140.988 84.1261C140.816 84.0408 140.627 83.9979 140.435 84.0011H128.555C128.257 84.0011 127.959 84.1261 127.703 84.3351L126.341 85.7151C126.085 85.9231 126 86.2151 126 86.5501V110.79C126 111.416 126.51 111.96 127.192 111.96H129.151C129.79 111.96 130.343 111.416 130.343 110.79V101.093H133.793L141.2 111.501C141.413 111.835 141.796 112.002 142.18 112.002H144.777C145.245 112.002 145.671 111.793 145.884 111.375C146.054 110.999 146.054 110.497 145.756 110.163L145.757 110.162ZM139.455 96.8311H131.067C130.684 96.8311 130.343 96.4961 130.343 96.1211V89.0151C130.343 88.5971 130.683 88.2631 131.067 88.2631H139.2C139.315 88.2628 139.429 88.289 139.532 88.3396C139.635 88.3903 139.726 88.464 139.796 88.5551L141.371 90.6031C141.458 90.7406 141.502 90.9006 141.499 91.0631V94.8231C141.5 94.9169 141.481 95.0099 141.445 95.0962C141.408 95.1826 141.354 95.2605 141.286 95.3251L139.966 96.6211C139.899 96.6881 139.82 96.7411 139.732 96.777C139.644 96.8129 139.551 96.831 139.456 96.8301L139.455 96.8311Z" fill="white"/>
<path fill-rule="evenodd" clip-rule="evenodd" d="M157.353 88.271H169.683C170.43 88.271 171 87.683 171 87.013V85.257C171 84.545 170.43 84.001 169.684 84.001H154.72C154.368 84.001 154.017 84.127 153.754 84.378L152.395 85.675C152.132 85.926 152 86.219 152 86.555V109.406C152 109.741 152.132 110.076 152.395 110.326L153.755 111.624C154.018 111.875 154.37 112.001 154.721 112.001H169.684C170.43 112.001 171 111.415 171 110.745V108.987C171 108.276 170.43 107.69 169.684 107.69H157.354C156.871 107.69 156.476 107.355 156.476 106.895V100.951C156.476 100.491 156.871 100.114 157.353 100.114H167.621C168.323 100.114 168.938 99.57 168.938 98.858V97.101C168.938 96.431 168.323 95.846 167.621 95.846H157.353C156.871 95.846 156.476 95.469 156.476 95.008V89.108C156.476 88.647 156.871 88.271 157.353 88.271Z" fill="white"/>
<path fill-rule="evenodd" clip-rule="evenodd" d="M194.75 84.001H193C192.292 84.001 191.75 84.586 191.75 85.297V105.857C191.75 105.899 191.708 106.485 191.458 106.987C191.25 107.362 190.917 107.697 189.958 107.697H183.042C182.083 107.697 181.75 107.362 181.542 106.987C181.292 106.485 181.25 105.899 181.25 105.899V85.297C181.25 84.587 180.667 84.001 180 84.001H178.25C177.542 84.001 177 84.586 177 85.297V105.899C177 106.15 177 107.446 177.708 108.825C178.708 110.873 180.625 112.001 183.042 112.001H189.958C192.375 112.001 194.292 110.873 195.292 108.825C195.958 107.445 196 106.15 196 105.899V85.297C196 84.587 195.458 84.001 194.75 84.001Z" fill="white"/>
<path fill-rule="evenodd" clip-rule="evenodd" d="M223.207 84.741L221.036 84.065C220.8 83.978 220.541 83.9769 220.305 84.0617C220.068 84.1465 219.869 84.312 219.742 84.529L213.605 93.433C213.547 93.5363 213.462 93.6221 213.359 93.6816C213.256 93.741 213.14 93.7719 213.021 93.771C212.897 93.7723 212.774 93.742 212.664 93.6829C212.555 93.6238 212.462 93.5378 212.395 93.433L206.3 84.529C206.164 84.3105 205.957 84.1452 205.714 84.0608C205.471 83.9764 205.206 83.9778 204.964 84.065L202.834 84.74C202.335 84.909 202 85.331 202 85.881V110.821C202 111.494 202.543 112.001 203.169 112.001H205.089C205.757 112.001 206.258 111.495 206.258 110.819V94.446C206.258 94.066 206.55 93.813 206.801 93.771C207.051 93.686 207.385 93.686 207.636 94.024L210.976 98.919C211.184 99.257 211.56 99.426 211.936 99.426H214.065C214.482 99.426 214.815 99.256 215.066 98.919L218.406 94.024C218.615 93.686 218.991 93.686 219.241 93.771C219.491 93.813 219.742 94.066 219.742 94.446V110.819C219.742 111.495 220.285 112.001 220.911 112.001H222.831C223.5 112.001 224 111.495 224 110.819V85.879C224 85.331 223.666 84.909 223.207 84.74V84.741Z" fill="white"/>
<path d="M25.123 84.001H42.877C43.501 84.001 44 84.503 44 85.131V87.141C44 87.769 43.501 88.311 42.877 88.311L25.123 88.313C24.5 88.313 24 87.769 24 87.141V85.131C24 84.503 24.499 84.001 25.123 84.001Z" fill="white"/>
<path d="M25.123 107.639H42.877C43.501 107.639 44 108.141 44 108.769V110.779C44 111.407 43.501 111.949 42.877 111.949L25.123 111.951C24.5 111.951 24 111.407 24 110.779V108.769C24 108.141 24.499 107.639 25.123 107.639Z" fill="white"/>
<path d="M25.123 95.845H33.877C34.501 95.845 35 96.347 35 96.975V98.985C35 99.613 34.501 100.155 33.877 100.155L25.123 100.157C24.5 100.157 24 99.613 24 98.985V96.975C24 96.347 24.499 95.845 25.123 95.845Z" fill="white"/>
<rect x="156" y="1.99805" width="90" height="64" stroke="white" stroke-width="3"/>
<path fill-rule="evenodd" clip-rule="evenodd" d="M197.875 24.811L197.5 23.849C197.427 23.6937 197.329 23.552 197.208 23.43L194.542 20.751C194.458 20.626 194.292 20.542 194.167 20.501L193.167 20.081C193.019 20.0295 192.864 20.0015 192.708 19.998H183.292C183.125 19.998 182.958 20.04 182.792 20.082L181.833 20.5C181.673 20.5422 181.529 20.6293 181.417 20.751L178.75 23.43C178.629 23.552 178.531 23.6937 178.458 23.849L178.083 24.811C178 24.979 178 25.146 178 25.313V42.683C178 42.85 178 43.017 178.083 43.143L178.458 44.148C178.542 44.273 178.625 44.44 178.75 44.566L181.417 47.203C181.542 47.328 181.667 47.412 181.833 47.496L182.792 47.914C182.958 47.956 183.125 47.998 183.292 47.998H192.708C192.875 47.998 193.042 47.956 193.167 47.914L194.167 47.496C194.292 47.412 194.458 47.328 194.542 47.203L197.208 44.566C197.333 44.44 197.417 44.273 197.5 44.147L197.875 43.143C197.96 43.0048 198.003 42.8452 198 42.683V25.313C198 25.146 197.958 24.979 197.875 24.811ZM191.667 43.729H184.292C184.183 43.7282 184.075 43.7055 183.975 43.6624C183.874 43.6193 183.784 43.5566 183.708 43.478L182.5 42.222C182.419 42.1567 182.355 42.0736 182.311 41.9792C182.268 41.8849 182.247 41.7818 182.25 41.678V26.318C182.25 26.108 182.333 25.899 182.5 25.732L183.708 24.518C183.784 24.4396 183.875 24.3771 183.975 24.3342C184.075 24.2913 184.183 24.2688 184.292 24.268H191.667C191.917 24.268 192.125 24.351 192.25 24.518L193.5 25.732C193.625 25.899 193.708 26.109 193.708 26.318V41.678C193.708 41.888 193.625 42.097 193.5 42.222L192.25 43.478C192.125 43.645 191.917 43.728 191.667 43.728V43.729Z" fill="white"/>
<path fill-rule="evenodd" clip-rule="evenodd" d="M222.917 19.998H220.833C220.25 19.998 219.75 20.498 219.75 21.166V36.773C219.75 37.19 219.458 37.441 219.25 37.483C219.042 37.566 218.708 37.483 218.542 37.19L208.292 20.582C208.133 20.3717 207.915 20.2123 207.667 20.123C207.512 20.0427 207.341 19.9998 207.167 19.998H205.083C204.5 19.998 204 20.498 204 21.166V46.83C204 47.497 204.5 47.998 205.083 47.998H207.167C207.75 47.998 208.25 47.498 208.25 46.83V31.223C208.25 30.806 208.542 30.597 208.75 30.513C209 30.472 209.292 30.513 209.458 30.806L219.75 47.414C219.875 47.664 220.083 47.789 220.333 47.873C220.5 47.956 220.667 47.998 220.833 47.998H222.917C223.5 47.998 224 47.498 224 46.83V21.166C224 20.499 223.5 19.998 222.917 19.998Z" fill="white"/>
</svg>
