<svg viewBox="0 0 548 278" fill="none" xmlns="http://www.w3.org/2000/svg">
<path d="M504.941 175.927C506.032 176.324 506.827 177.317 506.827 178.607V237.271C506.827 238.859 505.635 240.05 504.047 240.05H499.481C497.992 240.05 496.702 238.859 496.702 237.271V198.757C496.702 197.864 496.106 197.268 495.511 197.169C494.915 196.971 494.022 196.971 493.526 197.765L485.585 209.279C484.989 210.073 484.195 210.47 483.202 210.47H478.14C477.247 210.47 476.353 210.073 475.857 209.279L467.916 197.765C467.32 196.971 466.526 196.971 465.931 197.169C465.335 197.268 464.64 197.864 464.64 198.757V237.271C464.64 238.859 463.449 240.05 461.861 240.05H457.295C455.806 240.05 454.516 238.859 454.516 237.271V178.607C454.516 177.317 455.31 176.324 456.501 175.927L461.563 174.339C462.754 173.942 464.045 174.339 464.74 175.431L479.232 196.375C479.53 196.871 480.125 197.169 480.721 197.169C481.316 197.169 481.813 196.871 482.11 196.375L496.702 175.431C497.397 174.339 498.588 173.942 499.779 174.339L504.941 175.927Z" fill="white"/>
<path d="M436.342 173.646C438.03 173.646 439.32 175.036 439.32 176.724V225.66C439.32 226.255 439.221 229.332 437.633 232.608C435.25 237.472 430.684 240.152 424.927 240.152H408.45C402.692 240.152 398.126 237.472 395.744 232.608C394.057 229.332 394.057 226.255 394.057 225.66V176.724C394.057 175.036 395.347 173.646 397.034 173.646H401.204C402.792 173.646 404.181 175.036 404.181 176.724V225.66C404.181 225.66 404.281 227.049 404.876 228.24C405.372 229.134 406.167 229.928 408.45 229.928H424.927C427.21 229.928 428.004 229.134 428.5 228.24C429.096 227.049 429.195 225.66 429.195 225.56V176.724C429.195 175.036 430.486 173.646 432.173 173.646H436.342Z" fill="white"/>
<path d="M351.62 183.968C350.528 183.968 349.634 184.862 349.634 185.954V199.95C349.634 201.041 350.528 201.935 351.62 201.935H365.847C367.435 201.935 368.825 203.325 368.825 204.913V209.082C368.825 210.769 367.435 212.06 365.847 212.06H351.62C350.528 212.06 349.634 212.953 349.634 214.045V228.14C349.634 229.232 350.528 230.026 351.62 230.026H377.512C379.2 230.026 380.49 231.416 380.49 233.103V237.272C380.49 238.86 379.2 240.25 377.512 240.25H345.664C344.87 240.25 344.076 239.952 343.48 239.356L340.403 236.279C339.808 235.684 339.51 234.89 339.51 234.096V179.899C339.51 179.105 339.808 178.41 340.403 177.814L343.48 174.737C344.076 174.142 344.87 173.844 345.664 173.844H377.512C379.2 173.844 380.49 175.134 380.49 176.822V180.991C380.49 182.579 379.2 183.968 377.512 183.968H351.62Z" fill="white"/>
<path d="M324.161 235.484C324.856 236.278 324.856 237.469 324.459 238.362C323.962 239.355 322.97 239.851 321.878 239.851H315.823C314.93 239.851 314.036 239.454 313.54 238.66L296.268 213.944H288.228V236.972C288.228 238.461 286.938 239.752 285.449 239.752H280.883C279.295 239.752 278.104 238.461 278.104 236.972V179.401C278.104 178.607 278.302 177.912 278.897 177.415L282.074 174.14C282.669 173.644 283.364 173.346 284.059 173.346H311.753C312.25 173.346 312.646 173.445 313.044 173.643L315.724 175.033C316.121 175.232 316.419 175.43 316.716 175.827L323.168 184.463C323.367 184.662 323.466 184.959 323.565 185.257L324.26 187.342C324.359 187.54 324.459 187.838 324.459 188.136V201.437C324.459 201.834 324.359 202.132 324.161 202.529L323.168 204.911C323.069 205.209 322.871 205.507 322.573 205.804L316.22 212.157C315.922 212.455 315.624 212.653 315.327 212.753L312.944 213.745C312.547 213.944 312.25 213.944 311.852 213.944H308.875L324.161 235.484ZM309.47 203.819C309.966 203.819 310.364 203.621 310.661 203.323L313.738 200.246C314.036 199.948 314.235 199.551 314.235 199.055V190.121C314.235 189.724 314.135 189.327 313.937 189.029L310.264 184.165C309.966 183.768 309.47 183.47 308.875 183.47H289.916C289.022 183.47 288.228 184.265 288.228 185.257V202.132C288.228 203.025 289.022 203.819 289.916 203.819H309.47Z" fill="white"/>
<path d="M235.266 183.968C234.174 183.968 233.281 184.862 233.281 185.954V199.95C233.281 201.041 234.174 201.935 235.266 201.935H250.493C252.082 201.935 253.471 203.325 253.471 204.913V209.082C253.471 210.769 252.082 212.06 250.493 212.06H235.266C234.174 212.06 233.281 212.953 233.281 214.045V228.14C233.281 229.232 234.174 230.026 235.266 230.026H261.159C262.846 230.026 264.137 231.416 264.137 233.103V237.272C264.137 238.86 262.846 240.25 261.159 240.25H229.311C228.516 240.25 227.722 239.952 227.127 239.356L224.05 236.279C223.454 235.684 223.156 234.89 223.156 234.096V179.899C223.156 179.105 223.454 178.41 224.05 177.814L227.127 174.737C227.722 174.142 228.516 173.844 229.311 173.844H261.159C262.846 173.844 264.137 175.134 264.137 176.822V180.991C264.137 182.579 262.846 183.968 261.159 183.968H235.266Z" fill="white"/>
<path d="M202.165 172.75H206.632C208.22 172.75 209.511 174.04 209.511 175.629V236.675C209.511 238.164 208.22 239.454 206.632 239.454H202.165C200.577 239.454 199.386 238.164 199.386 236.675V212.951C199.386 211.958 198.493 211.164 197.5 211.164H173.777C172.784 211.164 171.99 211.958 171.99 212.951V236.675C171.99 238.164 170.699 239.454 169.111 239.454H164.645C163.156 239.454 161.865 238.164 161.865 236.675V175.629C161.865 174.04 163.156 172.75 164.645 172.75H169.111C170.699 172.75 171.99 174.04 171.99 175.629V199.253C171.99 200.246 172.784 201.04 173.777 201.04H197.5C198.493 201.04 199.386 200.246 199.386 199.253V175.629C199.386 174.04 200.577 172.75 202.165 172.75Z" fill="white"/>
<path d="M147.63 173.844C149.119 173.844 150.31 175.035 150.31 176.524V181.288C150.31 182.777 149.119 184.068 147.63 184.068H132.308C131.415 184.068 130.72 184.763 130.72 185.656V237.57C130.72 239.059 129.529 240.25 128.04 240.25H123.176C121.687 240.25 120.496 239.059 120.496 237.57V185.656C120.496 184.763 119.801 184.068 118.908 184.068H103.586C102.097 184.068 100.906 182.777 100.906 181.288V176.524C100.906 175.035 102.097 173.844 103.586 173.844H147.63Z" fill="white"/>
<path d="M73.831 203.669C73.831 202.18 72.6398 200.989 71.1508 200.989H45.8539C44.3649 200.989 43.1738 202.18 43.1738 203.669V208.434C43.1738 209.923 44.3649 211.213 45.8539 211.213H62.7284H66.2026H71.1508C72.6398 211.213 73.831 209.923 73.831 208.434V203.669Z" fill="white"/>
<path d="M87.8631 176.327C87.8631 174.838 86.6719 173.646 85.183 173.646H45.8539C44.3649 173.646 43.1738 174.838 43.1738 176.327V181.091C43.1738 182.58 44.3649 183.87 45.8539 183.87H62.7284H83.1978H85.183C86.6719 183.87 87.8631 182.58 87.8631 181.091V176.327Z" fill="white"/>
<path d="M404.892 98.0457C403.603 97.3012 403.167 95.6741 403.911 94.3846L433.576 43.0041C434.32 41.7146 435.948 41.2787 437.237 42.0231L441.363 44.4054C442.653 45.1499 443.175 46.8266 442.43 48.1161L433.993 62.7299L413.758 97.7774L412.766 99.4966C412.021 100.786 410.308 101.172 409.019 100.428L404.892 98.0457Z" fill="white"/>
<path d="M87.8631 232.704C87.8631 231.215 86.6719 230.024 85.183 230.024H45.8539C44.3649 230.024 43.1738 231.215 43.1738 232.704V237.469C43.1738 238.957 44.3649 240.248 45.8539 240.248H62.7284H83.1978H85.183C86.6719 240.248 87.8631 238.957 87.8631 237.469V232.704Z" fill="white"/>
<path d="M503.764 37.75C505.166 37.75 506.368 38.9518 506.368 40.5541V102.145C506.368 103.747 505.166 104.949 503.764 104.949H498.757C498.356 104.949 497.955 104.849 497.555 104.649C496.954 104.448 496.453 104.148 496.153 103.547L471.416 63.6882C471.016 62.9872 470.315 62.887 469.714 62.9872C469.213 63.1875 468.512 63.6882 468.512 64.6897V102.145C468.512 103.747 467.31 104.949 465.908 104.949H460.901C459.499 104.949 458.297 103.747 458.297 102.145V40.5541C458.297 38.9518 459.499 37.75 460.901 37.75H465.908C466.309 37.75 466.709 37.8501 467.11 38.0504C467.711 38.2507 468.211 38.6513 468.612 39.1521L493.248 79.0107C493.649 79.7118 494.45 79.9121 494.951 79.7118C495.452 79.6116 496.153 79.0108 496.153 78.0093V40.5541C496.153 38.9518 497.354 37.75 498.757 37.75H503.764Z" fill="white"/>
<path d="M446.405 49.7684C446.605 50.169 446.706 50.5696 446.706 50.9702V92.5314C446.706 92.932 446.605 93.3326 446.405 93.633L445.504 96.0366C445.303 96.337 445.103 96.7376 444.803 97.038L438.393 103.347C438.193 103.648 437.792 103.848 437.492 104.048L435.088 105.05C434.788 105.15 434.387 105.25 433.987 105.25H412.354C411.953 105.25 411.552 105.15 411.152 105.05L408.848 104.048C408.448 103.848 408.147 103.648 407.847 103.347L401.437 97.038C401.137 96.7376 400.937 96.337 400.736 96.0366L399.835 93.633C399.635 93.3326 399.635 92.932 399.635 92.5314V50.9702C399.635 50.5696 399.635 50.169 399.835 49.7684L400.736 47.465C400.937 47.0644 401.137 46.764 401.437 46.4636L407.847 40.0541C408.147 39.7537 408.448 39.5534 408.848 39.4532L411.152 38.4518C411.552 38.3516 411.953 38.2515 412.354 38.2515H433.987C434.387 38.2515 434.788 38.3516 435.088 38.4518L437.492 39.4532C437.792 39.5534 438.193 39.7537 438.393 40.0541L444.803 46.4636C445.103 46.764 445.303 47.0644 445.504 47.465L446.405 49.7684ZM431.483 95.0351C432.084 95.0351 432.585 94.8348 432.885 94.4342L435.89 91.4298C436.19 91.1293 436.39 90.6286 436.39 90.1278V53.3737C436.39 52.873 436.19 52.3722 435.89 51.9717L432.885 49.0674C432.585 48.6668 432.084 48.4665 431.483 48.4665H414.757C414.256 48.4665 413.756 48.6668 413.355 49.0674L410.451 51.9717C410.05 52.3722 409.85 52.873 409.85 53.3737V90.1278C409.85 90.6286 410.05 91.1293 410.451 91.4298L413.355 94.4342C413.756 94.8348 414.256 95.0351 414.757 95.0351H431.483Z" fill="white"/>
<path d="M320.58 38.1489C322.083 38.1489 323.284 39.3507 323.284 40.853V45.6602C323.284 47.1625 322.083 48.4645 320.58 48.4645H303.555C302.653 48.4645 301.952 49.1655 301.952 50.0669V102.446C301.952 103.948 300.75 105.15 299.248 105.15H294.341C292.839 105.15 291.637 103.948 291.637 102.446V50.0669C291.637 49.1655 290.936 48.4645 290.034 48.4645H273.009C271.507 48.4645 270.305 47.1625 270.305 45.6602V40.853C270.305 39.3507 271.507 38.1489 273.009 38.1489H320.58Z" fill="white"/>
<path d="M267.411 94.5353C269.013 94.5353 270.315 95.8373 270.315 97.4397V101.947C270.315 103.549 269.013 104.751 267.411 104.751H232.558C231.757 104.751 231.056 104.45 230.455 103.949L227.25 100.745C226.75 100.244 226.449 99.4427 226.449 98.7417V40.6543C226.449 39.0519 227.751 37.75 229.354 37.75H233.76C235.363 37.75 236.665 39.0519 236.665 40.6543V92.7326C236.665 93.7341 237.566 94.5353 238.567 94.5353H267.411Z" fill="white"/>
<path d="M198.116 48.4649C197.115 48.4649 196.314 49.2661 196.314 50.3677V93.132C196.314 94.1335 197.115 95.0349 198.116 95.0349H202.823C204.426 95.0349 205.728 96.3368 205.728 97.9392V102.346C205.728 103.948 204.426 105.25 202.823 105.25H179.488C177.886 105.25 176.584 103.948 176.584 102.346V97.9392C176.584 96.3368 177.886 95.0349 179.488 95.0349H184.195C185.197 95.0349 185.998 94.1335 185.998 93.132V50.3677C185.998 49.2661 185.197 48.4649 184.195 48.4649H179.488C177.886 48.4649 176.584 47.1629 176.584 45.5605V41.1538C176.584 39.5514 177.886 38.2495 179.488 38.2495H202.823C204.426 38.2495 205.728 39.5514 205.728 41.1538V45.5605C205.728 47.1629 204.426 48.4649 202.823 48.4649H198.116Z" fill="white"/>
<path d="M157.279 37.9507C158.982 37.9507 160.284 39.3528 160.284 41.0554V90.4296C160.284 91.0305 160.184 94.1352 158.581 97.4401C156.178 102.348 151.571 105.052 145.762 105.052H125.137C119.328 105.052 114.721 102.348 112.318 97.4401C110.615 94.1352 110.615 91.0305 110.615 90.4296V41.0554C110.615 39.3528 111.917 37.9507 113.62 37.9507H117.826C119.428 37.9507 120.831 39.3528 120.831 41.0554V90.4296C120.831 90.4296 120.931 91.8317 121.532 93.0335C122.032 93.9349 122.834 94.7361 125.137 94.7361H145.762C148.066 94.7361 148.867 93.9349 149.367 93.0335C149.968 91.8317 150.069 90.4296 150.069 90.3295V41.0554C150.069 39.3528 151.371 37.9507 153.073 37.9507H157.279Z" fill="white"/>
<path d="M91.9844 68.2963L90.0815 70.1992C89.3805 70.9002 89.3805 72.0019 90.0815 72.7029L91.9844 74.6058C92.2849 74.9062 92.4852 75.2067 92.5853 75.5071L93.5869 77.9108C93.7872 78.3114 93.7871 78.712 93.7871 79.0124V92.3324C93.7871 92.733 93.7872 93.0335 93.5869 93.4341L92.5853 95.8377C92.4852 96.1382 92.2849 96.4386 91.9844 96.7391L85.5748 103.149C85.2744 103.449 84.9739 103.649 84.6735 103.75L82.2698 104.751C81.8692 104.951 81.4686 104.951 81.1682 104.951H49.824C49.0228 104.951 48.3218 104.651 47.8211 104.15L44.5161 100.945C44.0153 100.344 43.7148 99.6434 43.7148 98.9424V44.0599C43.7148 43.2587 44.0153 42.5576 44.5161 42.0569L47.8211 38.852C48.3218 38.2511 49.0228 37.9507 49.824 37.9507H81.1682C81.4686 37.9507 81.8692 38.0508 82.2698 38.151L84.6735 39.1525C84.9739 39.3528 85.2744 39.5531 85.5748 39.7534L91.9844 46.2632C92.2849 46.4635 92.4852 46.8641 92.5853 47.1646L93.5869 49.5682C93.7872 49.8686 93.7871 50.2692 93.7871 50.6698V63.8897C93.7871 64.2903 93.7872 64.6909 93.5869 64.9913L92.5853 67.395C92.4852 67.7956 92.2849 68.096 91.9844 68.2963ZM55.733 94.7361H78.7646C79.1652 94.7361 79.6659 94.5358 79.9664 94.2353L83.071 91.1306C83.3715 90.8302 83.5718 90.4296 83.5718 89.9288V81.416C83.5718 80.9153 83.3715 80.5147 83.071 80.2142L79.9664 77.1095C79.6659 76.8091 79.1652 76.6088 78.7646 76.6088H55.733C54.7315 76.6088 53.9302 77.41 53.9302 78.4115V92.9333C53.9302 93.9349 54.7315 94.7361 55.733 94.7361ZM79.9664 65.7926L83.071 62.7881C83.3715 62.4876 83.5718 61.9868 83.5718 61.4861V53.0734C83.5718 52.5727 83.3715 52.1721 83.071 51.7715L79.9664 48.767C79.6659 48.3664 79.1652 48.2662 78.7646 48.2662H55.733C54.7315 48.2662 53.9302 49.0674 53.9302 49.9688V64.5907C53.9302 65.5922 54.7315 66.3934 55.733 66.3934H78.7646C79.1652 66.3934 79.6659 66.1932 79.9664 65.7926Z" fill="white"/>
<path fill-rule="evenodd" clip-rule="evenodd" d="M0 0H368V143H0V0ZM8 8V135H360V8H8Z" fill="white"/>
<path fill-rule="evenodd" clip-rule="evenodd" d="M360 0H548V143H360V0ZM368 8V135H540V8H368Z" fill="white"/>
<path fill-rule="evenodd" clip-rule="evenodd" d="M0 135H548V278H0V135ZM8 143V270H540V143H8Z" fill="white"/>
</svg>

