<svg width="2318" height="1080" viewBox="0 0 2318 1080" fill="none" xmlns="http://www.w3.org/2000/svg">
  <path d="M1419 537V990H899V537C899 393.406 1015.41 277 1159 277C1302.59 277 1419 393.406 1419 537Z" stroke="white" stroke-width="20"/>
  <path d="M2242 990.146H76" stroke="url(#paint0_linear_2400_5217)" stroke-width="20" stroke-linecap="round"/>
  <path d="M1024 472.5H1091.5C1128.78 472.5 1159 502.721 1159 540V540C1159 577.279 1128.78 607.5 1091.5 607.5V607.5C1054.22 607.5 1024 577.279 1024 540V472.5Z" stroke="white" stroke-width="20"/>
  <path d="M1159 540C1159 502.721 1189.22 472.5 1226.5 472.5V472.5C1263.78 472.5 1294 502.721 1294 540V540C1294 577.279 1263.78 607.5 1226.5 607.5V607.5C1189.22 607.5 1159 577.279 1159 540V540Z" stroke="white" stroke-width="20"/>
  <path fill-rule="evenodd" clip-rule="evenodd" d="M1317.38 440.8C1316.77 439.792 1315.9 438.959 1314.87 438.381C1313.84 437.803 1312.68 437.499 1311.5 437.5C1309.01 437.5 1306.83 438.821 1305.62 440.802C1304.47 440.523 1303.27 440.544 1302.13 440.863C1301 441.182 1299.96 441.789 1299.12 442.624C1298.29 443.459 1297.68 444.496 1297.36 445.633C1297.04 446.771 1297.02 447.971 1297.3 449.119C1296.29 449.733 1295.46 450.597 1294.88 451.627C1294.3 452.656 1294 453.818 1294 454.999C1294 457.489 1295.32 459.669 1297.3 460.878C1297.02 462.026 1297.04 463.227 1297.36 464.364C1297.68 465.502 1298.29 466.538 1299.12 467.373C1299.96 468.209 1300.99 468.815 1302.13 469.134C1303.27 469.453 1304.47 469.474 1305.62 469.195C1306.47 470.598 1307.8 471.649 1309.36 472.159C1310.92 472.669 1312.61 472.605 1314.13 471.978C1315.48 471.418 1316.62 470.444 1317.38 469.197C1318.53 469.476 1319.73 469.455 1320.87 469.136C1322 468.817 1323.04 468.21 1323.88 467.375C1324.71 466.539 1325.32 465.502 1325.64 464.365C1325.96 463.227 1325.98 462.026 1325.7 460.878C1326.71 460.264 1327.54 459.4 1328.12 458.371C1328.7 457.341 1329 456.18 1329 454.999C1329 453.818 1328.7 452.656 1328.12 451.627C1327.54 450.597 1326.71 449.733 1325.7 449.119C1325.98 447.971 1325.96 446.771 1325.64 445.634C1325.32 444.496 1324.71 443.46 1323.87 442.625C1323.04 441.79 1322 441.183 1320.87 440.863C1319.73 440.544 1318.53 440.522 1317.38 440.8H1317.38Z" fill="white"/>
  <path d="M1306.07 449.57L1316.93 460.43" stroke="black" stroke-width="3" stroke-linecap="round" stroke-linejoin="round"/>
  <path d="M1316.93 449.57L1306.07 460.43" stroke="black" stroke-width="3" stroke-linecap="round" stroke-linejoin="round"/>
  <defs>
  <linearGradient id="paint0_linear_2400_5217" x1="76" y1="990.646" x2="2242" y2="990.646" gradientUnits="userSpaceOnUse">
  <stop stop-color="white" stop-opacity="0"/>
  <stop offset="0.23" stop-color="white"/>
  <stop offset="0.825" stop-color="white"/>
  <stop offset="1" stop-color="white" stop-opacity="0"/>
  </linearGradient>
  </defs>
  </svg>
