<svg width="64" height="64" viewBox="0 0 64 64" fill="none" xmlns="http://www.w3.org/2000/svg">
<path d="M0 3.2C0 1.43269 1.43269 0 3.2 0H32C49.6731 0 64 14.3269 64 32V32C64 49.6731 49.6731 64 32 64V64C14.3269 64 0 49.6731 0 32V3.2Z" fill="black"/>
<g clip-path="url(#clip0_695_3791)">
<path d="M32.0003 13.6667C42.1256 13.6667 50.3337 21.8748 50.3337 32.0001C50.3337 42.1253 42.1256 50.3334 32.0003 50.3334C21.8751 50.3334 13.667 42.1253 13.667 32.0001V13.6667H32.0003Z" stroke="#FAFAFA" stroke-width="3.33333"/>
<path d="M12.833 32H51.1663" stroke="#FAFAFA" stroke-width="3.33333"/>
<path d="M32 31.1667V51.1667" stroke="#FAFAFA" stroke-width="3.33333"/>
</g>
<defs>
<clipPath id="clip0_695_3791">
<rect width="40" height="40" fill="white" transform="translate(12 12)"/>
</clipPath>
</defs>
</svg>
