<svg width="1400" height="1400" viewBox="0 0 1400 1400" fill="none" xmlns="http://www.w3.org/2000/svg">
<g clip-path="url(#clip0_3630_6155)">
<path d="M1400 0H0V1400H1400V0Z" fill="black"/>
<path d="M525 700H530V695H525V700ZM350 700V695H345V700H350ZM525 1050V1055H530V1050H525ZM401.256 998.744L404.792 995.208L401.256 998.744ZM525 695H350V705H525V695ZM530 875V700H520V875H530ZM530 1050V875H520V1050H530ZM397.721 1002.28C431.477 1036.04 477.261 1055 525 1055V1045C479.913 1045 436.673 1027.09 404.792 995.208L397.721 1002.28ZM345 875C345 922.739 363.964 968.523 397.721 1002.28L404.792 995.208C372.911 963.327 355 920.087 355 875H345ZM345 700V875H355V700H345Z" fill="white"/>
<path d="M1050 700H1055V695H1050V700ZM875 700V695H870V700H875ZM875 1050H870V1055H875V1050ZM1050 695H875V705H1050V695ZM1055 875V700H1045V875H1055ZM1045 875C1045 920.087 1027.09 963.327 995.208 995.208L1002.28 1002.28C1036.04 968.523 1055 922.739 1055 875H1045ZM995.208 995.208C963.327 1027.09 920.087 1045 875 1045V1055C922.739 1055 968.523 1036.04 1002.28 1002.28L995.208 995.208ZM880 1050V875H870V1050H880ZM870 700V875H880V700H870Z" fill="white"/>
<path d="M700 700H705V695H700V700ZM525 700V695H520V700H525ZM700 1050V1055H705V1050H700ZM525 1050H520V1055H525V1050ZM700 695H525V705H700V695ZM705 875V700H695V875H705ZM705 1050V875H695V1050H705ZM525 1055H700V1045H525V1055ZM520 875V1050H530V875H520ZM520 700V875H530V700H520Z" fill="white"/>
<path d="M875 700H880V695H875V700ZM700 700V695H695V700H700ZM875 1050V1055H880V1050H875ZM700 1050H695V1055H700V1050ZM875 695H700V705H875V695ZM880 875V700H870V875H880ZM880 1050V875H870V1050H880ZM700 1055H875V1045H700V1055ZM695 875V1050H705V875H695ZM695 700V875H705V700H695Z" fill="white"/>
<path d="M525 1225C478.587 1225 434.075 1243.44 401.256 1276.26C368.437 1309.08 350 1353.59 350 1400H525V1225Z" stroke="white" stroke-width="10"/>
<path d="M700 1225H525V1400H700V1225Z" stroke="white" stroke-width="10"/>
<path d="M875 1225H700V1400H875V1225Z" stroke="white" stroke-width="10"/>
<path d="M875 1225C921.413 1225 965.925 1243.44 998.744 1276.26C1031.56 1309.08 1050 1353.59 1050 1400H875V1225Z" stroke="white" stroke-width="10"/>
<path d="M525 350H350V525H525V350Z" stroke="white" stroke-width="10"/>
<path d="M525 350C571.413 350 615.925 368.437 648.744 401.256C681.563 434.075 700 478.587 700 525H525V350Z" stroke="white" stroke-width="10"/>
<path d="M700 525C700 571.413 681.563 615.925 648.744 648.744C615.925 681.563 571.413 700 525 700V525H700Z" stroke="white" stroke-width="10"/>
<path d="M875 350C828.587 350 784.075 368.437 751.256 401.256C718.437 434.075 700 478.587 700 525H875V350Z" stroke="white" stroke-width="10"/>
<path d="M875 350C921.413 350 965.925 368.437 998.744 401.256C1031.56 434.075 1050 478.587 1050 525H875V350Z" stroke="white" stroke-width="10"/>
<path d="M1050 525C1050 571.413 1031.56 615.925 998.744 648.744C965.925 681.563 921.413 700 875 700V525H1050Z" stroke="white" stroke-width="10"/>
<path d="M350 525C350 571.413 368.437 615.925 401.256 648.744C434.075 681.563 478.587 700 525 700V525H350Z" stroke="white" stroke-width="10"/>
<path d="M700 525C700 571.413 718.437 615.925 751.256 648.744C784.075 681.563 828.587 700 875 700V525H700Z" stroke="white" stroke-width="10"/>
</g>
<defs>
<clipPath id="clip0_3630_6155">
<rect width="1400" height="1400" fill="white"/>
</clipPath>
</defs>
</svg>
